<svg width="30" height="30" viewBox="0 0 30 30" fill="none" xmlns="http://www.w3.org/2000/svg">
<rect width="30" height="30" rx="15" fill="white"/>
<path d="M7.8291 17.6689C7.8291 16.917 7.95671 16.238 8.21191 15.6318C8.46712 15.0257 8.81348 14.5472 9.25098 14.1963C9.69303 13.8408 10.1875 13.6631 10.7344 13.6631H11.6504C11.4225 13.9775 11.2106 14.3285 11.0146 14.7158C10.8232 15.1032 10.6683 15.5361 10.5498 16.0146C10.4313 16.4932 10.3698 17.0195 10.3652 17.5938C10.3607 18.4186 10.5065 19.1797 10.8027 19.877C11.099 20.5697 11.557 21.1621 12.1768 21.6543H11.001C10.3949 21.6543 9.85254 21.4743 9.37402 21.1143C8.89551 20.7542 8.51725 20.2734 8.23926 19.6719C7.96582 19.0703 7.8291 18.4027 7.8291 17.6689ZM11.4043 17.6074C11.4089 17.056 11.459 16.5592 11.5547 16.1172C11.6549 15.6706 11.8076 15.2467 12.0127 14.8457C12.2178 14.4447 12.4775 14.0322 12.792 13.6084C13.3343 12.8929 13.929 12.1113 14.5762 11.2637C15.2233 10.416 15.8112 9.47949 16.3398 8.4541C16.4993 8.15332 16.6611 7.92318 16.8252 7.76367C16.9893 7.59961 17.2035 7.51758 17.4678 7.51758C17.7822 7.51758 18.042 7.62012 18.2471 7.8252C18.4521 8.03027 18.5547 8.31055 18.5547 8.66602C18.5547 8.98503 18.4932 9.3291 18.3701 9.69824C18.2516 10.0628 18.1126 10.4274 17.9531 10.792C17.7936 11.152 17.6546 11.4915 17.5361 11.8105C17.4176 12.1296 17.3584 12.403 17.3584 12.6309C17.3584 12.8678 17.445 13.0547 17.6182 13.1914C17.7913 13.3281 18.026 13.3965 18.3223 13.3965H20.8311C21.0863 13.3965 21.3141 13.4557 21.5146 13.5742C21.7152 13.6927 21.8747 13.8545 21.9932 14.0596C22.1117 14.2646 22.1709 14.4925 22.1709 14.7432C22.1709 14.9391 22.139 15.1214 22.0752 15.29C22.016 15.4541 21.9294 15.5885 21.8154 15.6934C21.7334 15.7663 21.7266 15.8369 21.7949 15.9053C21.8861 16.001 21.9567 16.1309 22.0068 16.2949C22.057 16.4544 22.082 16.6208 22.082 16.7939C22.082 17.0309 22.0319 17.2474 21.9316 17.4434C21.8314 17.6393 21.6992 17.7897 21.5352 17.8945C21.4395 17.9538 21.4235 18.0267 21.4873 18.1133C21.6423 18.3366 21.7197 18.6077 21.7197 18.9268C21.7197 19.2002 21.6445 19.4417 21.4941 19.6514C21.3438 19.861 21.1523 20.0228 20.9199 20.1367C20.8516 20.1641 20.8424 20.2188 20.8926 20.3008C20.929 20.3783 20.9609 20.4671 20.9883 20.5674C21.0156 20.6676 21.0293 20.7839 21.0293 20.916C21.0293 21.2624 20.9131 21.5358 20.6807 21.7363C20.4528 21.9414 20.1794 22.085 19.8604 22.167C19.6553 22.2171 19.3796 22.2581 19.0332 22.29C18.6914 22.3219 18.2949 22.3356 17.8438 22.3311H16.873C16.0391 22.3311 15.2848 22.2126 14.6104 21.9756C13.9359 21.7386 13.3594 21.4059 12.8809 20.9775C12.4023 20.5537 12.0355 20.0547 11.7803 19.4805C11.5296 18.9062 11.4043 18.2819 11.4043 17.6074Z" fill="#5856D6"/>
</svg>
