<svg width="121" height="194" viewBox="0 0 121 194" fill="none" xmlns="http://www.w3.org/2000/svg">
<g clip-path="url(#clip0_1_1400)">
<path fill-rule="evenodd" clip-rule="evenodd" d="M82.2779 6.60671C82.2779 -0.363745 72.9776 -2.72947 69.6469 3.39375L46.1272 46.6334C43.8931 50.7406 46.8663 55.7424 51.5418 55.7424H73.8087V77.3049C73.8087 84.2563 83.0686 86.6379 86.4225 80.5492L109.819 38.0749C112.288 33.5935 109.046 28.1065 103.93 28.1065H82.2779V6.60671Z" fill="#EB9FEF"/>
<path fill-rule="evenodd" clip-rule="evenodd" d="M67.5602 12.3997C67.5602 1.67785 53.2562 -1.96338 48.1297 7.45342L12.0733 73.6849C8.63326 80.0038 13.2073 87.7017 20.4018 87.7017H54.5557V120.702C54.5557 131.394 68.7975 135.06 73.9598 125.696L109.825 60.6418C113.626 53.7473 108.639 45.3025 100.766 45.3025H67.5602V12.3997Z" fill="#5856D6"/>
<mask id="mask0_1_1400" style="mask-type:luminance" maskUnits="userSpaceOnUse" x="10" y="2" width="102" height="130">
<path fill-rule="evenodd" clip-rule="evenodd" d="M67.5602 12.3997C67.5602 1.67785 53.2562 -1.96338 48.1297 7.45342L12.0733 73.6849C8.63326 80.0038 13.2073 87.7017 20.4018 87.7017H54.5557V120.702C54.5557 131.394 68.7975 135.06 73.9598 125.696L109.825 60.6418C113.626 53.7473 108.639 45.3025 100.766 45.3025H67.5602V12.3997Z" fill="white"/>
</mask>
<g mask="url(#mask0_1_1400)">
<path fill-rule="evenodd" clip-rule="evenodd" d="M82.2779 6.60671C82.2779 -0.363745 72.9776 -2.72947 69.6469 3.39375L46.1272 46.6334C43.8931 50.7406 46.8663 55.7424 51.5418 55.7424H73.8087V77.3049C73.8087 84.2563 83.0686 86.6379 86.4225 80.5492L109.819 38.0749C112.288 33.5935 109.046 28.1065 103.93 28.1065H82.2779V6.60671Z" fill="#4400C6"/>
</g>
<path d="M4.78125 177.002V172.854H11.0039C12.5273 172.854 13.7109 172.467 14.5547 171.693C15.4102 170.908 15.8379 169.795 15.8379 168.354V168.318C15.8379 166.877 15.4102 165.77 14.5547 164.996C13.7109 164.223 12.5273 163.836 11.0039 163.836H4.78125V159.635H12.3047C14.0859 159.635 15.6445 159.998 16.9805 160.725C18.3164 161.439 19.3535 162.447 20.0918 163.748C20.8418 165.049 21.2168 166.566 21.2168 168.301V168.336C21.2168 170.082 20.8418 171.605 20.0918 172.906C19.3535 174.207 18.3164 175.215 16.9805 175.93C15.6445 176.645 14.0859 177.002 12.3047 177.002H4.78125ZM2.10938 185V159.635H7.41797V185H2.10938ZM31.9746 185.387C30.0645 185.387 28.4121 184.994 27.0176 184.209C25.623 183.424 24.5449 182.299 23.7832 180.834C23.0215 179.369 22.6406 177.617 22.6406 175.578V175.543C22.6406 173.516 23.0273 171.775 23.8008 170.322C24.5742 168.857 25.6582 167.732 27.0527 166.947C28.4473 166.162 30.082 165.77 31.957 165.77C33.8438 165.77 35.4844 166.162 36.8789 166.947C38.2852 167.721 39.375 168.84 40.1484 170.305C40.9219 171.758 41.3086 173.504 41.3086 175.543V175.578C41.3086 177.629 40.9219 179.387 40.1484 180.852C39.3867 182.316 38.3086 183.441 36.9141 184.227C35.5195 185 33.873 185.387 31.9746 185.387ZM31.9922 181.361C32.8242 181.361 33.5449 181.139 34.1543 180.693C34.7754 180.236 35.25 179.58 35.5781 178.725C35.918 177.857 36.0879 176.809 36.0879 175.578V175.543C36.0879 174.324 35.918 173.287 35.5781 172.432C35.2383 171.576 34.7578 170.926 34.1367 170.48C33.5156 170.023 32.7891 169.795 31.957 169.795C31.1367 169.795 30.416 170.023 29.7949 170.48C29.1855 170.926 28.7109 171.576 28.3711 172.432C28.0312 173.287 27.8613 174.324 27.8613 175.543V175.578C27.8613 176.809 28.0254 177.857 28.3535 178.725C28.6934 179.58 29.1738 180.236 29.7949 180.693C30.416 181.139 31.1484 181.361 31.9922 181.361ZM44.0859 185V159.635H49.2188V185H44.0859ZM52.8047 185V159.635H57.9375V185H52.8047ZM69.9785 185.387C68.0566 185.387 66.4043 184.994 65.0215 184.209C63.6387 183.412 62.5723 182.281 61.8223 180.816C61.084 179.352 60.7148 177.617 60.7148 175.613V175.596C60.7148 173.592 61.084 171.857 61.8223 170.393C62.5723 168.916 63.6211 167.779 64.9688 166.982C66.3281 166.174 67.9277 165.77 69.7676 165.77C71.6074 165.77 73.1953 166.162 74.5312 166.947C75.8789 167.721 76.916 168.816 77.6426 170.234C78.3809 171.652 78.75 173.311 78.75 175.209V176.791H63.2285V173.557H76.3242L73.8809 176.58V174.611C73.8809 173.51 73.7109 172.59 73.3711 171.852C73.0312 171.102 72.5566 170.539 71.9473 170.164C71.3496 169.789 70.6523 169.602 69.8555 169.602C69.0586 169.602 68.3496 169.795 67.7285 170.182C67.1191 170.568 66.6387 171.137 66.2871 171.887C65.9473 172.625 65.7773 173.533 65.7773 174.611V176.598C65.7773 177.641 65.9473 178.531 66.2871 179.27C66.6387 180.008 67.1367 180.576 67.7812 180.975C68.4258 181.361 69.1934 181.555 70.084 181.555C70.7871 181.555 71.3965 181.443 71.9121 181.221C72.4277 180.998 72.8496 180.717 73.1777 180.377C73.5059 180.037 73.7285 179.691 73.8457 179.34L73.8809 179.234H78.5918L78.5391 179.428C78.3984 180.119 78.123 180.816 77.7129 181.52C77.3027 182.223 76.7461 182.867 76.043 183.453C75.3516 184.039 74.502 184.508 73.4941 184.859C72.498 185.211 71.3262 185.387 69.9785 185.387ZM79.875 185L85.7812 175.613L79.9102 166.156H85.6934L89.0859 172.52H89.1914L92.5312 166.156H98.1211L92.2324 175.473L98.0684 185H92.4961L88.9102 178.461H88.8047L85.2715 185H79.875ZM105.539 185.299C104.285 185.299 103.184 185.059 102.234 184.578C101.285 184.086 100.541 183.412 100.002 182.557C99.4746 181.689 99.2109 180.705 99.2109 179.604V179.568C99.2109 178.42 99.498 177.441 100.072 176.633C100.646 175.812 101.479 175.168 102.568 174.699C103.658 174.23 104.982 173.943 106.541 173.838L113.889 173.381V176.58L107.314 177.002C106.33 177.061 105.58 177.295 105.064 177.705C104.549 178.104 104.291 178.637 104.291 179.305V179.34C104.291 180.031 104.555 180.576 105.082 180.975C105.609 181.361 106.318 181.555 107.209 181.555C107.971 181.555 108.65 181.408 109.248 181.115C109.857 180.811 110.332 180.4 110.672 179.885C111.023 179.357 111.199 178.766 111.199 178.109V172.396C111.199 171.564 110.936 170.908 110.408 170.428C109.881 169.936 109.113 169.689 108.105 169.689C107.145 169.689 106.383 169.889 105.82 170.287C105.258 170.686 104.912 171.189 104.783 171.799L104.748 171.957H100.055L100.072 171.746C100.166 170.586 100.547 169.555 101.215 168.652C101.895 167.75 102.832 167.047 104.027 166.543C105.234 166.027 106.664 165.77 108.316 165.77C109.945 165.77 111.357 166.033 112.553 166.561C113.748 167.076 114.674 167.809 115.33 168.758C115.998 169.707 116.332 170.814 116.332 172.08V185H111.199V182.188H111.094C110.742 182.832 110.285 183.389 109.723 183.857C109.172 184.314 108.545 184.672 107.842 184.93C107.139 185.176 106.371 185.299 105.539 185.299Z" fill="#02182B"/>
</g>
<defs>
<clipPath id="clip0_1_1400">
<rect width="121" height="194" fill="white"/>
</clipPath>
</defs>
</svg>
